<svg width="232" height="174" viewBox="0 0 232 174" fill="none" xmlns="http://www.w3.org/2000/svg">
<path fill-rule="evenodd" clip-rule="evenodd" d="M150.298 96.0395C150.298 96.0395 119.732 99.2923 109.351 79.5843C106.146 79.7278 102.75 79.2973 99.3538 78.0536C96.0532 81.976 89.1171 85.755 79.5979 81.3542C74.2403 85.8028 64.6733 84.9418 60.6073 79.1538C56.7805 81.5455 43.2431 87.5727 33.3891 74.7051C29.8971 76.5707 20.9997 74.6573 18.9907 68.6301C11.5762 70.1608 6.41 64.4685 6.93619 60.0198C3.30071 61.12 -1.14796 54.9971 3.34855 50.5006C0.908952 49.9266 -0.286929 43.6602 3.68339 41.6512C-4.35292 33.6149 2.58318 24.5263 7.27104 23.1391C8.1799 16.9683 14.1115 14.7679 17.6991 14.8158C19.8995 8.97991 27.2662 4.19642 39.2728 6.73167C42.0472 2.52219 50.4662 2.90487 52.4275 3.90941C57.4023 0.56096 68.9306 -2.40481 80.4589 2.90487C85.0989 0.46529 97.0099 0.417455 101.172 5.24879C107.342 3.38322 113.609 6.15765 116.048 8.5494C127.672 5.53579 139.153 15.4855 138.244 21.7518C143.267 23.2826 145.323 29.5489 144.415 32.706C154.795 39.8813 149.629 49.1134 144.08 51.9835C145.897 55.7147 143.601 63.5117 136.713 64.8033C136.33 67.3385 133.412 70.8305 129.155 71.835C129.873 77.3361 133.556 91.3995 150.298 96.0395Z" fill="#070300"/>
<path d="M181.003 142.356L182.445 171.649H186.255L171.84 172.215" stroke="black" stroke-width="2" stroke-miterlimit="10"/>
<path fill-rule="evenodd" clip-rule="evenodd" d="M227.552 121.147C227.192 121.456 226.883 121.713 226.471 121.97C226.728 122.228 226.934 122.537 227.089 122.794C227.397 123.257 227.603 123.721 227.758 124.236C228.376 126.037 228.273 128.097 227.397 129.796C226.625 131.289 224.926 132.524 223.176 132.679C223.176 132.781 223.176 132.936 223.176 133.09C223.073 134.274 222.661 135.407 221.94 136.334C221.22 137.26 220.293 137.981 219.16 138.393C218.697 138.547 218.182 138.599 217.719 138.599C217.719 139.062 217.668 139.526 217.513 139.989C217.307 140.71 216.947 141.327 216.483 141.945C214.733 144.21 211.85 145.085 209.019 144.622C208.195 144.519 207.32 144.21 206.496 143.85C206.342 144.262 206.136 144.674 205.878 145.034C204.746 146.578 202.841 147.66 200.936 147.608C199.958 147.608 198.98 147.351 198.105 146.836C197.95 146.784 197.847 146.681 197.693 146.578C197.59 146.733 197.435 146.887 197.332 146.99C196.972 147.351 196.509 147.557 196.045 147.763C195.119 148.123 194.038 148.174 193.06 147.917C191.309 147.505 189.971 146.27 189.198 144.725C188.426 145.6 187.242 146.115 186.161 146.373C183.638 146.99 180.858 146.373 179.005 144.468C178.079 143.541 177.409 142.408 177.049 141.224C177.049 141.173 176.997 141.07 176.997 141.018C176.894 141.07 176.843 141.121 176.74 141.121C176.225 141.327 175.71 141.482 175.144 141.482C174.166 141.482 173.136 141.173 172.313 140.607C170.82 139.526 170.15 137.621 170.562 135.922C170.15 135.973 169.79 135.922 169.378 135.87C167.267 135.561 165.517 133.966 164.951 131.958C164.642 130.877 164.796 129.796 165.157 128.766C164.436 128.817 163.715 128.251 163.252 127.788C162.634 127.067 162.119 126.192 161.965 125.265C161.759 124.287 161.759 123.309 162.068 122.382C162.222 121.867 162.48 121.25 162.84 120.838C162.737 120.632 162.634 120.426 162.531 120.22C161.759 118.264 161.965 115.999 163.097 114.248C163.252 113.991 163.458 113.733 163.664 113.476C163.509 113.373 163.406 113.219 163.252 113.064C162.943 112.755 162.737 112.395 162.48 112.035C162.016 111.262 161.656 110.387 161.45 109.563C160.626 106.578 160.884 103.18 162.634 100.554C163.303 99.5246 164.179 98.6494 165.26 98.0316C165.208 97.9801 165.208 97.9287 165.157 97.8257C164.951 97.4139 164.899 96.9505 164.899 96.4872C164.848 95.6635 165.105 94.7368 165.466 94.0161C166.083 92.6776 167.37 91.545 168.863 91.1846C169.121 91.1331 169.533 91.0302 169.893 91.0302C169.842 90.5668 169.893 90.155 169.996 89.6917C170.408 87.2206 172.313 85.3158 174.578 84.4406C175.762 83.9772 177.1 83.8228 178.387 84.0287C178.799 84.0802 179.16 84.1832 179.571 84.2861V84.1317C179.571 83.7198 179.674 83.308 179.88 82.9991C180.241 82.2784 180.961 81.7636 181.734 81.4547C182.506 81.1458 183.433 81.0943 184.256 81.3002C184.617 81.4032 185.131 81.5576 185.492 81.815V81.7636C185.852 81.0943 186.367 80.4765 186.985 79.9617C188.066 79.035 189.404 78.3658 190.846 78.1084C192.339 77.851 193.832 78.0569 195.17 78.6747C196.303 79.1895 197.281 80.0132 198.053 80.9399C198.722 80.3736 199.598 80.0647 200.37 79.8073C201.451 79.4984 202.635 79.3954 203.716 79.6013C204.746 79.7558 205.672 80.3221 206.29 81.1458C206.599 81.5061 206.856 81.918 207.062 82.3813C207.165 82.5358 207.217 82.7417 207.268 82.8961C207.423 82.7932 207.629 82.7417 207.835 82.6902C208.967 82.3813 210.203 82.5873 211.232 82.9991C212.262 83.4624 213.292 84.2861 213.806 85.3158C213.858 85.4187 213.909 85.5217 213.909 85.6246C215.351 85.1098 216.947 85.2643 218.388 85.7276C221.323 86.6543 223.691 89.0224 224.257 92.0598C224.515 93.5528 224.412 95.1487 223.897 96.6416C223.897 96.6416 223.897 96.6931 223.845 96.6931C224 96.7446 224.103 96.7446 224.206 96.7961C224.772 96.9505 225.235 97.2594 225.699 97.5683C226.625 98.289 227.346 99.1642 227.706 100.245C228.067 101.275 228.118 102.51 227.861 103.592C227.706 104.158 227.5 104.724 227.192 105.136C227.037 105.393 226.831 105.599 226.625 105.805C227.346 106.217 227.964 106.783 228.53 107.401C230.847 110.027 231.722 113.682 230.435 116.977C229.869 118.624 228.839 120.066 227.552 121.147Z" fill="white"/>
<path d="M178.911 109.667C180.333 109.667 181.485 108.514 181.485 107.093C181.485 105.671 180.333 104.519 178.911 104.519C177.489 104.519 176.337 105.671 176.337 107.093C176.337 108.514 177.489 109.667 178.911 109.667Z" fill="#070300"/>
<path d="M195.067 110.027C196.489 110.027 197.641 108.875 197.641 107.453C197.641 106.031 196.489 104.879 195.067 104.879C193.646 104.879 192.493 106.031 192.493 107.453C192.493 108.875 193.646 110.027 195.067 110.027Z" fill="#070300"/>
<path d="M185.227 127.788C187.786 127.788 189.86 125.714 189.86 123.155C189.86 120.596 187.786 118.522 185.227 118.522C182.668 118.522 180.594 120.596 180.594 123.155C180.594 125.714 182.668 127.788 185.227 127.788Z" fill="#070300"/>
<path d="M211.029 136.179L209.639 171.701H205.829L220.244 172.216" stroke="black" stroke-width="2" stroke-miterlimit="10"/>
<path d="M25.792 29.912H27.82V38H25.792V29.912ZM22.204 29H31.396V30.8H22.204V29ZM36.8596 38L36.5716 35.504L36.8956 34.592L36.5716 33.692L36.8596 31.172H38.9356L38.5396 34.592L38.9356 38H36.8596ZM37.3876 34.592C37.2596 35.312 37.0236 35.944 36.6796 36.488C36.3436 37.024 35.9156 37.44 35.3956 37.736C34.8836 38.032 34.3076 38.18 33.6676 38.18C33.0036 38.18 32.4156 38.032 31.9036 37.736C31.3916 37.432 30.9916 37.012 30.7036 36.476C30.4236 35.932 30.2836 35.304 30.2836 34.592C30.2836 33.872 30.4236 33.244 30.7036 32.708C30.9916 32.164 31.3916 31.744 31.9036 31.448C32.4156 31.144 33.0036 30.992 33.6676 30.992C34.3076 30.992 34.8836 31.14 35.3956 31.436C35.9156 31.732 36.3476 32.152 36.6916 32.696C37.0356 33.232 37.2676 33.864 37.3876 34.592ZM32.3116 34.592C32.3116 34.992 32.3916 35.344 32.5516 35.648C32.7196 35.952 32.9476 36.192 33.2356 36.368C33.5236 36.536 33.8556 36.62 34.2316 36.62C34.6076 36.62 34.9596 36.536 35.2876 36.368C35.6236 36.192 35.9196 35.952 36.1756 35.648C36.4316 35.344 36.6316 34.992 36.7756 34.592C36.6316 34.192 36.4316 33.84 36.1756 33.536C35.9196 33.224 35.6236 32.984 35.2876 32.816C34.9596 32.64 34.6076 32.552 34.2316 32.552C33.8556 32.552 33.5236 32.64 33.2356 32.816C32.9476 32.984 32.7196 33.224 32.5516 33.536C32.3916 33.84 32.3116 34.192 32.3116 34.592ZM40.2755 38V31.172H42.2795V36.38L41.6915 36.176L45.7595 31.172H47.9435L42.0755 38H40.2755ZM45.8555 38L43.8155 34.652L45.2915 33.512L48.1475 38H45.8555ZM54.1993 36.02C53.2473 36.02 52.5233 35.76 52.0273 35.24C51.5313 34.712 51.2833 33.952 51.2833 32.96V31.172H53.2753V32.876C53.2753 33.932 53.7713 34.46 54.7633 34.46C55.1873 34.46 55.5873 34.356 55.9633 34.148C56.3473 33.932 56.6833 33.612 56.9713 33.188L57.0913 34.52C56.8433 34.992 56.4633 35.36 55.9513 35.624C55.4473 35.888 54.8633 36.02 54.1993 36.02ZM56.7553 38V31.172H58.7593V38H56.7553ZM62.3917 31.868H64.3957V38H62.3917V31.868ZM59.6797 31.172H67.1077V32.708H59.6797V31.172ZM71.6797 38.18C70.8317 38.18 70.0877 38.032 69.4477 37.736C68.8077 37.432 68.3077 37.012 67.9477 36.476C67.5877 35.932 67.4077 35.304 67.4077 34.592C67.4077 33.872 67.5877 33.244 67.9477 32.708C68.3077 32.164 68.8077 31.744 69.4477 31.448C70.0877 31.144 70.8317 30.992 71.6797 30.992C72.5277 30.992 73.2717 31.144 73.9117 31.448C74.5517 31.744 75.0477 32.164 75.3997 32.708C75.7597 33.244 75.9397 33.872 75.9397 34.592C75.9397 35.304 75.7597 35.932 75.3997 36.476C75.0477 37.012 74.5517 37.432 73.9117 37.736C73.2717 38.032 72.5277 38.18 71.6797 38.18ZM71.6797 36.656C72.1437 36.656 72.5397 36.572 72.8677 36.404C73.2037 36.236 73.4597 36 73.6357 35.696C73.8197 35.384 73.9117 35.016 73.9117 34.592C73.9117 34.16 73.8197 33.792 73.6357 33.488C73.4597 33.176 73.2037 32.936 72.8677 32.768C72.5397 32.6 72.1437 32.516 71.6797 32.516C71.2237 32.516 70.8277 32.6 70.4917 32.768C70.1557 32.936 69.8957 33.176 69.7117 33.488C69.5357 33.792 69.4477 34.16 69.4477 34.592C69.4477 35.016 69.5357 35.384 69.7117 35.696C69.8957 36 70.1557 36.236 70.4917 36.404C70.8277 36.572 71.2237 36.656 71.6797 36.656ZM22.756 48.172H24.748V55H22.756V48.172ZM28.48 48.172H30.472V55H28.48V48.172ZM23.896 50.764H29.26V52.276H23.896V50.764ZM35.8307 55.18C35.0227 55.18 34.2987 55.032 33.6587 54.736C33.0267 54.432 32.5267 54.008 32.1587 53.464C31.7987 52.92 31.6187 52.288 31.6187 51.568C31.6187 50.856 31.7907 50.232 32.1347 49.696C32.4867 49.16 32.9667 48.744 33.5747 48.448C34.1827 48.144 34.8747 47.992 35.6507 47.992C36.4427 47.992 37.1227 48.168 37.6907 48.52C38.2587 48.864 38.6947 49.352 38.9987 49.984C39.3107 50.616 39.4667 51.36 39.4667 52.216H33.2267V50.884H38.3867L37.6067 51.364C37.5747 50.964 37.4747 50.624 37.3067 50.344C37.1467 50.064 36.9267 49.848 36.6467 49.696C36.3667 49.544 36.0387 49.468 35.6627 49.468C35.2547 49.468 34.8987 49.552 34.5947 49.72C34.2987 49.88 34.0667 50.108 33.8987 50.404C33.7387 50.692 33.6587 51.032 33.6587 51.424C33.6587 51.896 33.7627 52.3 33.9707 52.636C34.1787 52.972 34.4827 53.228 34.8827 53.404C35.2827 53.58 35.7667 53.668 36.3347 53.668C36.8467 53.668 37.3627 53.596 37.8827 53.452C38.4027 53.3 38.8707 53.088 39.2867 52.816V54.16C38.8387 54.48 38.3147 54.732 37.7147 54.916C37.1227 55.092 36.4947 55.18 35.8307 55.18ZM43.7091 48.172H45.7011V55H43.7091V48.172ZM49.4331 48.172H51.4251V55H49.4331V48.172ZM44.8491 50.764H50.2131V52.276H44.8491V50.764ZM59.1838 55L58.8958 52.504L59.2198 51.592L58.8958 50.692L59.1838 48.172H61.2598L60.8638 51.592L61.2598 55H59.1838ZM59.7118 51.592C59.5838 52.312 59.3478 52.944 59.0038 53.488C58.6678 54.024 58.2398 54.44 57.7198 54.736C57.2078 55.032 56.6318 55.18 55.9918 55.18C55.3278 55.18 54.7398 55.032 54.2278 54.736C53.7158 54.432 53.3158 54.012 53.0278 53.476C52.7478 52.932 52.6078 52.304 52.6078 51.592C52.6078 50.872 52.7478 50.244 53.0278 49.708C53.3158 49.164 53.7158 48.744 54.2278 48.448C54.7398 48.144 55.3278 47.992 55.9918 47.992C56.6318 47.992 57.2078 48.14 57.7198 48.436C58.2398 48.732 58.6718 49.152 59.0158 49.696C59.3598 50.232 59.5918 50.864 59.7118 51.592ZM54.6358 51.592C54.6358 51.992 54.7158 52.344 54.8758 52.648C55.0438 52.952 55.2718 53.192 55.5598 53.368C55.8478 53.536 56.1798 53.62 56.5558 53.62C56.9318 53.62 57.2838 53.536 57.6118 53.368C57.9478 53.192 58.2438 52.952 58.4998 52.648C58.7558 52.344 58.9558 51.992 59.0998 51.592C58.9558 51.192 58.7558 50.84 58.4998 50.536C58.2438 50.224 57.9478 49.984 57.6118 49.816C57.2838 49.64 56.9318 49.552 56.5558 49.552C56.1798 49.552 55.8478 49.64 55.5598 49.816C55.2718 49.984 55.0438 50.224 54.8758 50.536C54.7158 50.84 54.6358 51.192 54.6358 51.592ZM63.7758 48.172H70.8318V55H68.8278V48.772L69.7518 49.684H64.7718L65.6358 48.94C65.6758 49.428 65.7078 49.88 65.7318 50.296C65.7638 50.704 65.7798 51.072 65.7798 51.4C65.7798 52.712 65.5838 53.664 65.1918 54.256C64.8078 54.848 64.1838 55.144 63.3198 55.144C63.0798 55.144 62.8478 55.116 62.6238 55.06C62.4078 55.012 62.1958 54.928 61.9878 54.808V53.356C62.1318 53.412 62.2718 53.456 62.4078 53.488C62.5518 53.512 62.6838 53.524 62.8038 53.524C63.2118 53.524 63.5038 53.34 63.6798 52.972C63.8638 52.596 63.9558 51.98 63.9558 51.124C63.9558 50.74 63.9398 50.3 63.9078 49.804C63.8838 49.308 63.8398 48.764 63.7758 48.172ZM76.19 55.18C75.382 55.18 74.658 55.032 74.018 54.736C73.386 54.432 72.886 54.008 72.518 53.464C72.158 52.92 71.978 52.288 71.978 51.568C71.978 50.856 72.15 50.232 72.494 49.696C72.846 49.16 73.326 48.744 73.934 48.448C74.542 48.144 75.234 47.992 76.01 47.992C76.802 47.992 77.482 48.168 78.05 48.52C78.618 48.864 79.054 49.352 79.358 49.984C79.67 50.616 79.826 51.36 79.826 52.216H73.586V50.884H78.746L77.966 51.364C77.934 50.964 77.834 50.624 77.666 50.344C77.506 50.064 77.286 49.848 77.006 49.696C76.726 49.544 76.398 49.468 76.022 49.468C75.614 49.468 75.258 49.552 74.954 49.72C74.658 49.88 74.426 50.108 74.258 50.404C74.098 50.692 74.018 51.032 74.018 51.424C74.018 51.896 74.122 52.3 74.33 52.636C74.538 52.972 74.842 53.228 75.242 53.404C75.642 53.58 76.126 53.668 76.694 53.668C77.206 53.668 77.722 53.596 78.242 53.452C78.762 53.3 79.23 53.088 79.646 52.816V54.16C79.198 54.48 78.674 54.732 78.074 54.916C77.482 55.092 76.854 55.18 76.19 55.18ZM86.6622 48.172V49.708H82.0782L83.0022 48.796V55H80.9982V48.172H86.6622ZM93.5783 55L93.2903 52.504L93.6143 51.592L93.2903 50.692L93.5783 48.172H95.6543L95.2583 51.592L95.6543 55H93.5783ZM94.1063 51.592C93.9783 52.312 93.7423 52.944 93.3983 53.488C93.0623 54.024 92.6343 54.44 92.1143 54.736C91.6023 55.032 91.0263 55.18 90.3863 55.18C89.7223 55.18 89.1343 55.032 88.6223 54.736C88.1103 54.432 87.7103 54.012 87.4223 53.476C87.1423 52.932 87.0023 52.304 87.0023 51.592C87.0023 50.872 87.1423 50.244 87.4223 49.708C87.7103 49.164 88.1103 48.744 88.6223 48.448C89.1343 48.144 89.7223 47.992 90.3863 47.992C91.0263 47.992 91.6023 48.14 92.1143 48.436C92.6343 48.732 93.0663 49.152 93.4103 49.696C93.7543 50.232 93.9863 50.864 94.1063 51.592ZM89.0303 51.592C89.0303 51.992 89.1103 52.344 89.2703 52.648C89.4383 52.952 89.6663 53.192 89.9543 53.368C90.2423 53.536 90.5743 53.62 90.9503 53.62C91.3263 53.62 91.6783 53.536 92.0063 53.368C92.3423 53.192 92.6383 52.952 92.8943 52.648C93.1503 52.344 93.3503 51.992 93.4943 51.592C93.3503 51.192 93.1503 50.84 92.8943 50.536C92.6383 50.224 92.3423 49.984 92.0063 49.816C91.6783 49.64 91.3263 49.552 90.9503 49.552C90.5743 49.552 90.2423 49.64 89.9543 49.816C89.6663 49.984 89.4383 50.224 89.2703 50.536C89.1103 50.84 89.0303 51.192 89.0303 51.592ZM96.9943 55V48.172H98.9623V53.944L98.4703 53.812L102.586 48.172H105.166V55H103.198V49.12L103.69 49.264L99.5023 55H96.9943ZM101.026 47.548C100.25 47.548 99.6263 47.36 99.1543 46.984C98.6823 46.6 98.3903 46.044 98.2783 45.316H99.8503C99.9063 45.66 100.034 45.924 100.234 46.108C100.442 46.284 100.706 46.372 101.026 46.372C101.346 46.372 101.606 46.284 101.806 46.108C102.006 45.924 102.138 45.66 102.202 45.316H103.762C103.658 46.044 103.366 46.6 102.886 46.984C102.414 47.36 101.794 47.548 101.026 47.548ZM108.798 48.868H110.802V55H108.798V48.868ZM106.086 48.172H113.514V49.708H106.086V48.172ZM118.026 55.18C117.218 55.18 116.494 55.032 115.854 54.736C115.222 54.432 114.722 54.008 114.354 53.464C113.994 52.92 113.814 52.288 113.814 51.568C113.814 50.856 113.986 50.232 114.33 49.696C114.682 49.16 115.162 48.744 115.77 48.448C116.378 48.144 117.07 47.992 117.846 47.992C118.638 47.992 119.318 48.168 119.886 48.52C120.454 48.864 120.89 49.352 121.194 49.984C121.506 50.616 121.662 51.36 121.662 52.216H115.422V50.884H120.582L119.802 51.364C119.77 50.964 119.67 50.624 119.502 50.344C119.342 50.064 119.122 49.848 118.842 49.696C118.562 49.544 118.234 49.468 117.858 49.468C117.45 49.468 117.094 49.552 116.79 49.72C116.494 49.88 116.262 50.108 116.094 50.404C115.934 50.692 115.854 51.032 115.854 51.424C115.854 51.896 115.958 52.3 116.166 52.636C116.374 52.972 116.678 53.228 117.078 53.404C117.478 53.58 117.962 53.668 118.53 53.668C119.042 53.668 119.558 53.596 120.078 53.452C120.598 53.3 121.066 53.088 121.482 52.816V54.16C121.034 54.48 120.51 54.732 119.91 54.916C119.318 55.092 118.69 55.18 118.026 55.18ZM123.746 55.108C123.53 55.108 123.33 55.056 123.146 54.952C122.97 54.848 122.83 54.708 122.726 54.532C122.622 54.348 122.57 54.148 122.57 53.932C122.57 53.708 122.622 53.508 122.726 53.332C122.83 53.148 122.97 53.004 123.146 52.9C123.33 52.796 123.53 52.744 123.746 52.744C123.97 52.744 124.17 52.796 124.346 52.9C124.53 53.004 124.674 53.148 124.778 53.332C124.882 53.508 124.934 53.708 124.934 53.932C124.934 54.148 124.882 54.348 124.778 54.532C124.674 54.708 124.53 54.848 124.346 54.952C124.17 55.056 123.97 55.108 123.746 55.108Z" fill="white"/>
</svg>
