<svg width="101" height="80" viewBox="0 0 101 80" fill="none" xmlns="http://www.w3.org/2000/svg">
<path fill-rule="evenodd" clip-rule="evenodd" d="M100.056 79.8267C100.056 79.8267 79.7024 82.5265 72.7978 66.1529C70.6764 66.2779 68.3949 65.9029 66.1334 64.903C63.9319 68.1527 59.3289 71.3025 52.9847 67.6528C49.4223 71.3525 43.0581 70.6275 40.3363 65.8279C37.7746 67.8278 28.7887 72.8023 22.2244 62.1032C19.9228 63.6531 13.9789 62.0532 12.638 57.0287C7.69476 58.3286 4.27249 53.579 4.61272 49.8793C2.19112 50.7792 -0.750829 45.6796 2.23114 41.98C0.630084 41.48 -0.170444 36.2804 2.45129 34.6056C-2.89224 27.9062 1.7108 20.3818 4.83286 19.2069C5.43326 14.0823 9.39588 12.2325 11.7775 12.2825C13.2584 7.4329 18.1417 3.43324 26.1269 5.58305C27.9882 2.08335 33.5719 2.38333 34.8927 3.25825C38.1949 0.48349 45.88 -1.9913 53.5451 2.40833C56.6271 0.383498 64.5724 0.333503 67.3342 4.38316C71.4369 2.80829 75.6197 5.13309 77.2207 7.10793C84.9658 4.60814 92.6109 12.8824 91.9905 18.082C95.3527 19.3569 96.6936 24.5564 96.0932 27.2062C103.018 33.1807 99.5555 40.8551 95.8731 43.2049C97.0939 46.3046 95.5729 52.779 90.9698 53.8539C90.7096 55.9538 88.7684 58.8785 85.9265 59.7034C86.4468 64.2781 88.9085 75.9771 100.056 79.8267Z" fill="#140300"/>
<path fill-rule="evenodd" clip-rule="evenodd" d="M71.4369 28.1812C71.3969 28.1062 71.1968 27.8312 71.1167 27.8312C71.7972 30.806 68.9753 31.3559 67.9346 28.4062C67.9346 29.6561 67.2142 30.181 65.473 29.2061C66.934 30.731 65.513 32.5058 65.2128 32.7058C65.433 32.7558 65.8132 32.4808 65.8733 32.4308C66.8139 32.4808 67.3142 34.1807 66.4937 35.5306C66.954 35.2056 67.2942 34.4057 67.3342 34.1807C68.2148 32.9058 69.6758 34.3057 69.7158 35.1556C69.9159 34.7556 69.6958 34.2557 69.6558 34.1807C71.1367 33.1308 71.8772 35.4806 70.7765 37.1304C70.9166 37.1304 71.2168 36.9054 71.2368 36.8804C72.0173 37.2304 71.8572 38.6303 70.8566 38.4053C70.8365 38.3553 70.6564 38.1053 70.4763 38.0803C71.2368 39.1053 70.0961 40.2302 69.1755 38.9303C69.1955 39.0303 69.2155 39.1303 69.2555 39.2303C67.9346 40.3552 66.3536 39.6052 65.2328 38.7053C65.2729 38.7803 66.0134 40.0052 65.433 40.5551C65.2529 40.4551 65.0527 40.4551 64.8526 40.6051C66.5337 41.3801 65.6331 43.6299 65.3129 44.3298C65.433 44.2798 65.7932 43.8549 65.9133 43.5799C66.4737 44.5298 66.1134 46.8546 65.7732 47.1546C65.6931 47.0546 65.6131 46.9046 65.513 46.8546C66.1334 48.9544 64.4123 48.9294 64.2122 48.5295C64.2922 48.4045 64.4323 48.1295 64.5124 47.9045C62.8513 49.5044 60.95 48.2045 61.6505 46.1297C61.4103 46.2297 61.1902 46.7296 61.1501 46.9046C60.6298 46.7796 59.8493 44.6798 61.6705 44.3298C61.5104 44.2798 61.2702 44.2048 60.89 44.3298C60.3496 43.6299 59.489 41.0301 61.3903 38.7803C61.3102 38.8053 60.91 38.9553 60.6898 39.2552C60.3296 38.6803 60.2696 37.8804 60.7099 37.2554C61.2102 37.5554 61.6905 37.5554 61.9907 37.4804C60.1895 36.4555 58.9087 33.7807 60.8099 31.8559C60.93 31.9559 61.4503 32.4558 61.8706 32.4308C59.8293 30.631 59.7092 27.4313 61.3102 26.7063C61.3703 26.8063 61.7505 27.2813 62.0307 27.3313C61.5704 26.7563 60.97 24.7815 62.1508 24.4565C62.1108 24.6565 62.1908 25.1564 62.411 25.3564C62.3509 23.7566 63.4717 23.5316 63.932 24.0815C63.8719 24.1565 63.6918 24.4065 63.6118 24.7065C64.8926 23.2066 66.5137 23.7316 67.2542 25.0815C67.2542 25.0815 67.2742 24.6315 67.1341 24.4815C68.5951 23.0566 69.7758 23.8816 70.4963 25.4314C70.4963 25.4064 70.4963 25.4064 70.4963 25.3814C70.4963 25.1564 70.4563 24.8815 70.3963 24.6815C71.1968 24.3065 72.0974 25.0815 72.0574 26.0314C71.7371 25.9564 71.537 26.1564 71.477 26.2314C73.1381 26.4563 72.2375 28.6562 71.4369 28.1812Z" fill="white"/>
<path fill-rule="evenodd" clip-rule="evenodd" d="M84.6458 30.2559C84.6057 30.1809 84.4256 29.9559 84.3456 29.9309C84.966 32.6057 82.4043 33.1057 81.4837 30.4559C81.4837 31.5808 80.8433 32.0558 79.2622 31.1808C80.5831 32.5557 79.2822 34.1556 79.0421 34.3306C79.2422 34.3556 79.5824 34.1306 79.6224 34.1056C80.463 34.1556 80.9233 35.6804 80.1828 36.9053C80.6031 36.6054 80.9033 35.9054 80.9233 35.7054C81.7238 34.5555 83.0247 35.8054 83.0647 36.5804C83.2448 36.2304 83.0447 35.7804 83.0047 35.7054C84.3256 34.7555 85.006 36.8803 84.0254 38.3552C84.1654 38.3552 84.4256 38.1552 84.4456 38.1302C85.1461 38.4552 84.986 39.7051 84.0854 39.5051C84.0654 39.4801 83.9053 39.2301 83.7452 39.2051C84.4256 40.1301 83.4049 41.155 82.5844 39.9801C82.5844 40.0801 82.6244 40.1551 82.6444 40.2301C81.4637 41.255 80.0427 40.58 79.022 39.7551C79.0621 39.8051 79.7225 40.93 79.2022 41.43C79.0421 41.355 78.8619 41.33 78.6818 41.455C80.1828 42.1549 79.3823 44.1797 79.0821 44.8047C79.2022 44.7797 79.5024 44.3797 79.6224 44.1297C80.1228 44.9797 79.8026 47.0795 79.5024 47.3295C79.4423 47.2295 79.3623 47.1045 79.2622 47.0545C79.8226 48.9543 78.2816 48.9293 78.0814 48.5544C78.1415 48.4544 78.2816 48.1794 78.3416 48.0044C76.8406 49.4293 75.1395 48.2544 75.7799 46.4045C75.5598 46.5045 75.3596 46.9295 75.3196 47.1045C74.8593 46.9795 74.1388 45.1046 75.7999 44.7797C75.6598 44.7297 75.4397 44.6797 75.0995 44.7797C74.6191 44.1547 73.8386 41.8049 75.5397 39.7801C75.4797 39.8051 75.0995 39.9301 74.9193 40.2051C74.5791 39.7051 74.5391 38.9802 74.9393 38.4052C75.3997 38.6552 75.8199 38.6802 76.0801 38.6052C74.459 37.6803 73.2983 35.2805 75.0194 33.5556C75.1395 33.6556 75.5998 34.0806 75.98 34.0806C74.1388 32.4557 74.0388 29.581 75.4597 28.931C75.5197 29.006 75.86 29.456 76.1001 29.506C75.6798 28.981 75.1395 27.2062 76.2202 26.9062C76.1802 27.0812 76.2602 27.5561 76.4403 27.7311C76.4003 26.2812 77.401 26.0813 77.8012 26.5812C77.7612 26.6312 77.5811 26.8812 77.501 27.1312C78.6618 25.7813 80.1028 26.2562 80.7832 27.4811C80.7832 27.4811 80.8032 27.0812 80.6631 26.9312C81.964 25.6563 83.0447 26.4062 83.7051 27.7811C83.7051 27.7811 83.7051 27.7561 83.7051 27.7311C83.7051 27.5311 83.6651 27.2812 83.6051 27.1062C84.3256 26.7812 85.1261 27.4811 85.0861 28.3311C84.7859 28.2811 84.6057 28.4561 84.5457 28.5061C86.1868 28.706 85.3662 30.6809 84.6458 30.2559Z" fill="white"/>
<path fill-rule="evenodd" clip-rule="evenodd" d="M30.0095 31.1809C28.9288 30.8559 28.0482 32.1058 27.9281 32.4558C28.2083 32.7807 28.2283 33.1557 28.2483 33.2557C27.8081 32.7557 25.9869 31.8808 24.9462 32.3308C24.7861 32.5808 24.4658 32.8307 24.0856 32.9307C24.706 31.9058 25.2063 30.3059 24.686 29.206C24.666 29.231 24.2457 29.606 23.8254 29.581C24.0456 29.406 25.8267 27.2062 24.1256 25.3564C24.6059 25.6063 27.1676 27.1312 27.2077 24.3815C27.4078 25.6563 28.1483 26.7812 28.8688 26.8312C28.8888 26.6063 29.1489 25.8313 29.5092 25.4064C28.9488 28.3061 29.6293 30.7809 30.0095 31.1809ZM35.5932 30.106C35.4531 29.931 35.333 29.756 35.1729 29.631C36.5939 32.9807 34.3124 34.4556 34.0722 34.4806C34.0322 34.0056 33.9521 33.7807 33.8521 33.6557C33.8521 33.7307 33.9321 38.7552 30.75 38.2053C30.81 38.0803 30.8701 37.9553 30.9301 37.8303C31.0302 37.5803 31.0702 37.3304 31.0902 37.0554C29.5692 39.2052 27.708 39.4802 25.5666 38.2803C25.5466 38.2553 25.7267 38.8302 25.9468 39.0552C24.9462 39.3552 24.3858 39.1552 23.6453 38.9052C25.2664 40.5551 24.1056 43.1799 23.9455 43.5798C23.9455 43.5798 23.9455 43.5798 23.9455 43.6048C24.2257 43.4798 24.4258 43.2048 24.5859 42.8549C25.3064 43.5798 25.0062 46.4296 24.5059 47.0045C24.4058 46.8795 24.3057 46.7795 24.2057 46.6296C24.8461 48.8044 23.125 49.3793 22.6446 48.6544C22.9248 48.2794 22.9849 48.0044 23.0049 47.9044C21.1837 49.8043 18.642 48.5794 19.5626 45.7796C19.5226 45.8046 19.5026 45.8046 19.4625 45.8296C19.2224 46.0046 19.0223 46.4296 18.9622 46.7046C18.8421 46.6046 18.7421 46.4796 18.662 46.3546C18.4819 46.1046 18.3618 45.7796 18.3218 45.4547C18.3018 45.1297 18.3418 44.3797 19.0623 43.9048C19.2224 43.7798 19.4025 43.7048 19.5626 43.6298C19.5826 43.6298 19.5826 43.6298 19.6026 43.6048C19.4025 43.5298 19.1824 43.4798 18.682 43.5798C18.4619 43.2049 18.2417 42.8299 18.1016 42.4049C17.8014 41.555 17.7014 40.6551 17.8815 39.7801C18.2417 38.0053 19.1824 37.3054 19.2224 37.2304C18.7821 37.2804 18.4619 37.4553 18.4419 37.4803C18.0416 36.8304 17.9816 35.7055 18.4219 35.1055C18.682 35.2805 19.5626 35.5555 20.0029 35.3305C19.8828 35.3055 18.7421 34.9556 18.1817 34.3306C17.5012 33.5807 17.181 32.1808 17.3411 31.1059C17.4212 30.5309 17.6013 30.006 17.8815 29.531C18.0016 29.331 18.1617 29.1061 18.3018 28.9311C18.3818 28.8311 18.4619 28.7311 18.5619 28.6311C18.582 28.6061 18.602 28.5811 18.602 28.5561C18.9222 28.8311 19.1824 29.0561 19.8828 29.256C17.7014 27.5062 17.0409 24.5314 18.4018 22.9816C18.8021 22.5066 19.0623 22.4066 19.2024 22.3566C19.2824 22.4566 19.7627 22.9566 20.0629 23.1066C19.8028 22.7316 19.4425 22.1316 19.3425 21.6817C19.2224 21.1817 19.1223 20.1818 19.6827 19.8068C19.8828 19.6819 20.0229 19.6569 20.223 19.6319C20.203 19.8068 20.223 20.0068 20.2631 20.1818C20.3031 20.3818 20.5232 20.7318 20.5232 20.7318C20.5032 20.4068 20.4632 20.2318 20.5833 19.8318C21.0036 18.6069 22.1643 18.9319 22.3444 19.1819C22.2844 19.2569 22.0442 19.5069 21.9442 19.9318C22.8848 19.0069 23.7854 19.0819 24.1456 19.1319C24.746 19.2069 25.3464 19.4069 26.5072 20.3318C26.5072 20.3068 26.2871 19.9318 26.167 19.7568C26.247 19.6819 26.3071 19.6069 26.3671 19.5569C26.5272 19.4319 26.6873 19.3069 26.8474 19.2069C27.4278 18.8819 28.0282 18.9069 28.6286 19.1319C29.209 19.3819 29.6493 19.8318 30.2297 20.8318C30.2297 20.4068 30.2096 20.2818 30.1496 20.0318C30.2297 19.9818 30.3698 19.8818 30.67 19.8818C30.9701 19.8568 31.2503 19.9068 31.5105 20.1318C31.7507 20.3068 31.9108 20.6568 32.0108 20.9817C31.9108 21.0817 31.8107 21.1817 31.7307 21.3067C31.6506 21.4317 31.5505 21.6317 31.5105 21.8317C31.7707 21.6567 32.6112 20.9317 33.4918 21.6067C33.832 21.8567 34.5325 22.5566 34.0322 24.3065C34.1723 24.2565 34.2723 24.1565 34.3924 24.0065C34.4124 23.9815 34.4324 23.9565 34.4324 23.9315C34.7727 24.1815 35.4531 24.5564 35.3531 25.8563C35.333 26.2313 35.273 26.6063 35.1529 26.9562C35.0729 27.2562 34.9528 27.5312 34.8127 27.7812C34.9728 27.7812 35.1129 27.6562 35.213 27.5812C35.7733 27.6062 36.4137 28.7811 35.5932 30.106Z" fill="white"/>
<path fill-rule="evenodd" clip-rule="evenodd" d="M56.2069 34.2556C56.287 34.2306 56.6072 34.1556 56.9274 33.7806C57.2076 34.2306 57.2877 35.1305 56.8874 35.7055C56.8073 35.5805 56.6072 35.4305 56.5272 35.4055C57.6479 37.3053 56.7073 39.0052 56.5272 39.2801C56.6472 39.2052 56.7673 39.1552 56.8874 39.0552C58.0281 40.83 56.8073 43.0548 55.5265 43.7548C55.6266 43.7798 56.0869 43.7048 56.227 43.6298C56.1869 45.2296 55.1262 45.9296 54.3457 45.6796C54.3457 45.6796 54.3257 45.3046 54.2256 45.0047C53.7053 48.4794 51.6639 48.6044 50.8634 47.8294C50.8834 47.6544 50.8634 47.4795 50.7834 47.3295C50.303 49.2793 48.702 49.1293 48.4618 48.0544C48.4818 48.0294 48.6219 47.7294 48.5819 47.3545C47.4211 49.2543 45.7801 48.5794 45.2197 47.3545C45.3998 47.1545 45.64 46.8045 45.76 46.5545C42.8781 48.4544 41.5372 47.1295 40.8768 44.6297C40.7567 44.9047 40.7567 45.5296 40.7767 45.5796C39.636 45.4296 39.3158 44.3297 39.3958 43.3798C39.3958 43.3798 39.3958 43.3798 39.3958 43.3548C39.5759 43.4798 39.8361 43.5548 40.1763 43.4798C37.8748 41.9549 37.3745 38.4052 39.596 35.7055C39.3158 35.7554 38.9956 36.0054 38.8755 36.1804C38.7554 35.7554 38.6553 34.7305 38.9555 34.3056C39.0556 34.4306 39.1357 34.5056 39.2757 34.5556C38.5753 33.2057 38.4952 31.9808 39.2757 30.6809C39.1557 30.7559 38.9155 30.8809 38.8154 31.0058C37.9149 29.231 38.4752 26.8812 40.2964 26.2063C39.8161 25.9313 39.3358 26.2563 39.1557 26.3812C38.9756 26.1313 38.6553 25.0314 39.1957 24.0314C39.2157 24.1564 39.2357 24.5814 39.5559 24.9564C38.7354 20.6317 42.8381 20.0818 43.1583 24.0314C43.2184 23.9065 43.2384 23.7565 43.2584 23.6315C43.2984 23.4565 43.2984 23.3065 43.2784 23.1315V23.1065C44.7394 22.1816 46.3404 24.8314 44.6793 27.1312C44.5392 27.1312 44.3791 27.1062 44.259 27.2062C46.4005 28.2561 45.2797 31.5058 43.9388 32.4307C44.159 32.3807 44.4992 32.3057 44.7594 32.0808C45.7 32.8557 46.2404 35.9804 43.7987 36.4304C44.0589 36.7554 44.9995 36.4554 45.0396 36.4554C45.64 36.9053 46.1203 38.7052 44.0189 39.5551C44.119 39.5551 44.7794 39.6051 45.2597 39.2801C45.7801 39.4301 46.5205 40.855 46.3604 42.3799C46.4405 42.2549 46.6406 41.8549 46.6606 41.6049C47.3411 41.43 48.4218 42.3549 48.2217 43.3298C48.8621 41.255 49.7227 40.605 51.1436 40.555C51.0435 40.4051 50.8434 40.3301 50.7033 40.2801C50.7233 40.1801 50.5832 38.2052 51.704 37.3553C51.3437 37.4303 51.0836 37.7053 50.9835 37.8053C50.0028 36.0054 50.203 33.7306 52.0442 33.5806C51.9241 33.5306 51.4838 33.2557 50.8834 33.5056C50.283 32.4807 50.243 31.1808 51.824 30.4809C51.5839 30.3809 51.4038 30.3059 50.9235 30.4559C50.3431 29.806 49.8227 26.8562 51.724 25.7813C51.4038 25.7313 51.1236 25.8563 50.8834 26.0313C49.3624 24.6564 50.7433 20.2068 53.7853 22.4816C53.7253 22.2566 53.5652 22.0566 53.4451 21.9066C54.806 20.4567 57.2877 21.9566 55.8867 24.7314C56.2069 24.6564 56.4271 24.2564 56.4671 24.2064C57.1075 24.6564 57.4278 25.8563 56.8874 27.1562C56.8274 27.1062 56.7073 26.9562 56.5071 26.9312C57.5678 28.3311 58.0882 31.9058 56.2069 34.2556Z" fill="white"/>
</svg>
